<svg height="464pt" viewBox="0 -3 464.35562 464" width="464pt" xmlns="http://www.w3.org/2000/svg"><path d="m160.355469 160.179688h96v240h-96zm0 0" fill="#7ab92d"/><path d="m256.355469 352.179688c-30.929688 0-56-25.074219-56-56v-136h56zm0 0" fill="#a1d51c"/><path d="m160.355469 248.179688h96v32h-96zm0 0" fill="#f8664f"/><path d="m256.355469 280.179688h-56v-32h56zm0 0" fill="#f89c8d"/><path d="m224.355469 352.179688h-32c-4.417969 0-8-3.582032-8-8 0-4.421876 3.582031-8 8-8h32c4.417969 0 8 3.578124 8 8 0 4.417968-3.582031 8-8 8zm0 0" fill="#57b7eb"/><path d="m217.234375 336.179688h-24.878906c-4.417969 0-8 3.578124-8 8 0 4.417968 3.582031 8 8 8h32c3.472656-.0625 6.511719-2.355469 7.519531-5.683594-5.402344-2.628906-10.34375-6.113282-14.640625-10.316406zm0 0" fill="#4891d3"/><path d="m256.355469 112.179688h112v288h-112zm0 0" fill="#fcbc04"/><path d="m328.355469 320.179688v-208h-72v288h112v-40c-22.089844 0-40-17.910157-40-40zm0 0" fill="#e59730"/><path d="m256.355469 160.179688h112v64h-112zm0 0" fill="#aae1f9"/><path d="m256.355469 304.179688h112v32h-112zm0 0" fill="#aae1f9"/><path d="m256.355469 160.179688h72v64h-72zm0 0" fill="#57b7eb"/><path d="m256.355469 336.179688h75.359375c-2.222656-5.042969-3.367188-10.492188-3.359375-16v-16h-72zm0 0" fill="#57b7eb"/><path d="m336.355469 200.179688h-32c-4.417969 0-8-3.582032-8-8 0-4.421876 3.582031-8 8-8h32c4.417969 0 8 3.578124 8 8 0 4.417968-3.582031 8-8 8zm0 0" fill="#a1d51c"/><path d="m328.355469 184.179688h8c4.417969 0 8 3.578124 8 8 0 4.417968-3.582031 8-8 8h-8zm0 0" fill="#c4f236"/><path d="m368.355469 176.179688h96v224h-96zm0 0" fill="#f8664f"/><path d="m368.355469 216.179688h96v32h-96zm0 0" fill="#a1d51c"/><path d="m416.355469 176.179688h48v184c-26.507813 0-48-21.492188-48-48zm0 0" fill="#f89c8d"/><path d="m416.355469 216.179688h48v32h-48zm0 0" fill="#c4f236"/><path d="m368.355469 344.179688h96v16h-96zm0 0" fill="#57b7eb"/><path d="m428.675781 344.179688h-60.320312v16h96c-13.625-.03125-26.597657-5.847657-35.679688-16zm0 0" fill="#4891d3"/><path d="m89.792969 247.878906 30.910156 8.28125-24.847656 92.730469-30.910157-8.28125zm0 0" fill="#fcbc04"/><path d="m79.394531 286.976562c10.003907 3.863282 20.417969 6.546876 31.042969 8l10.316406-38.796874-30.878906-8zm0 0" fill="#e59730"/><path d="m65.011719 340.652344 30.910156 8.28125c8.535156 2.285156 13.601563 11.058594 11.316406 19.597656l-20.707031 77.273438c-2.285156 8.535156-11.058594 13.597656-19.597656 11.3125l-30.90625-8.28125c-8.535156-2.289063-13.601563-11.0625-11.316406-19.597657l20.707031-77.273437c2.285156-8.535156 11.058593-13.601563 19.59375-11.3125zm0 0" fill="#a1d51c"/><path d="m72.996094 374.335938 8-29.4375-16-4.242188c-4.128906-1.089844-8.519532-.488281-12.203125 1.675781-3.679688 2.164063-6.34375 5.707031-7.398438 9.847657l-21.039062 77.117187c-1.097657 4.105469-.515625 8.480469 1.613281 12.15625 2.132812 3.679687 5.636719 6.355469 9.746094 7.445313l30.878906 8c8.527344 2.292968 17.300781-2.757813 19.601562-11.28125l5.28125-19.839844c-16.273437-11.621094-23.636718-32.117188-18.480468-51.441406zm0 0" fill="#7ab92d"/><path d="m272.355469 136.179688c0 75.109374-60.890625 136-136 136s-136-60.890626-136-136c0-75.113282 60.890625-136 136-136s136 60.886718 136 136zm0 0" fill="#f9e109"/><path d="m200.355469 208.179688c-75.109375 0-136-60.890626-136-136 0-20.285157 4.59375-40.308594 13.441406-58.5625-54.128906 25.632812-85.117187 83.652343-76.320313 142.890624 8.796876 59.242188 55.308594 105.753907 114.546876 114.550782 59.238281 8.796875 117.261718-22.195313 142.890624-76.320313-18.253906 8.847657-38.273437 13.441407-58.558593 13.441407zm0 0" fill="#fcbc04"/><path d="m240.355469 136.179688c0 57.4375-46.5625 104-104 104s-104-46.5625-104-104c0-57.441407 46.5625-104 104-104s104 46.558593 104 104zm0 0" fill="#aae1f9"/><path d="m136.355469 56.179688c-25.179688 0-48.890625 11.855468-64 32 31.851562-23.890626 76.417969-20.722657 104.570312 7.429687 28.148438 28.152344 31.316407 72.71875 7.429688 104.570313 27.546875-20.664063 38.785156-56.632813 27.894531-89.300782-10.890625-32.667968-41.460938-54.699218-75.894531-54.699218zm0 0" fill="#57b7eb"/><path d="m96.355469 232.179688c41.945312 17.394531 90.332031 5.566406 119.515625-29.222657 29.1875-34.792969 32.429687-84.496093 8.003906-122.777343h-127.519531zm0 0" fill="#a1d51c"/><path d="m160.355469 128.179688v-48h-64v152c46.582031 19.355468 100.339843 2.492187 127.519531-40-35.15625-.265626-63.519531-28.84375-63.519531-64zm0 0" fill="#7ab92d"/><path d="m96.355469 192.179688h127.519531c10.773438-16.691407 16.496094-36.136719 16.480469-56 0-2.722657 0-5.363282 0-8h-144zm0 0" fill="#f89c8d"/><path d="m160.355469 128.179688h-64v64h127.519531c-35.15625-.265626-63.519531-28.84375-63.519531-64zm0 0" fill="#f8664f"/><path d="m152.355469 168.179688h-24c-4.417969 0-8-3.582032-8-8 0-4.421876 3.582031-8 8-8h24c4.417969 0 8 3.578124 8 8 0 4.417968-3.582031 8-8 8zm0 0" fill="#4891d3"/><path d="m208.355469 168.179688h-24c-4.417969 0-8-3.582032-8-8 0-4.421876 3.582031-8 8-8h24c4.417969 0 8 3.578124 8 8 0 4.417968-3.582031 8-8 8zm0 0" fill="#57b7eb"/></svg>